<svg id="Vrstva_1" data-name="Vrstva 1" xmlns="http://www.w3.org/2000/svg" viewBox="0 0 192.63 313.92"><defs><style>.cls-1{fill:#00d000;}.cls-2{fill:#00a2b4;}.cls-3{fill:#fff;}.cls-4{fill:#0f40b1;}.cls-5{fill:#282828;}</style></defs><title>Kreslicí plátno 1</title><rect class="cls-1" y="34.02" width="192.63" height="279.9" rx="7.86"/><rect class="cls-2" x="49.53" y="18.3" width="93.56" height="40.1" rx="7.86"/><path class="cls-2" d="M108.56,32.67H82.5A11.49,11.49,0,0,1,71,21.19V11.48A11.49,11.49,0,0,1,82.5,0h26.06A11.49,11.49,0,0,1,120,11.48v9.71A11.49,11.49,0,0,1,108.56,32.67ZM82.89,20.8h25.27V11.87H82.89Z"/><rect class="cls-3" x="27.77" y="95.79" width="34.93" height="34.93" rx="5.15"/><rect class="cls-3" x="27.77" y="161.16" width="34.93" height="34.93" rx="5.15"/><rect class="cls-3" x="27.77" y="226.52" width="34.93" height="34.93" rx="5.15"/><rect class="cls-4" x="80.19" y="100.39" width="88.06" height="8.15"/><rect class="cls-4" x="80.19" y="119.31" width="54.25" height="8.15"/><rect class="cls-4" x="80.19" y="164.47" width="88.06" height="8.15"/><rect class="cls-4" x="80.19" y="183.4" width="54.25" height="8.15"/><rect class="cls-4" x="80.19" y="228.56" width="88.06" height="8.15"/><rect class="cls-4" x="80.19" y="247.49" width="54.25" height="8.15"/><polygon class="cls-5" points="45.69 124.16 30.56 111.56 35.59 105.52 44.78 113.17 63.32 91.66 69.28 96.79 45.69 124.16"/><polygon class="cls-5" points="45.69 188.87 30.56 176.28 35.59 170.23 44.78 177.88 63.32 156.37 69.28 161.5 45.69 188.87"/><polygon class="cls-5" points="45.69 253.59 30.56 240.99 35.59 234.95 44.78 242.6 63.32 221.08 69.28 226.21 45.69 253.59"/></svg>