<svg id="Vrstva_1" data-name="Vrstva 1" xmlns="http://www.w3.org/2000/svg" viewBox="0 0 157.02 155.39"><defs><style>.cls-1{fill:#00959d;}.cls-2{fill:#2ed1ce;}.cls-3{fill:#fff;}.cls-4{fill:#b5b3b3;}.cls-5{fill:#eceec5;}.cls-6{fill:#d2d2d2;}.cls-7{fill:#ececf0;}.cls-8{fill:#6dba1a;}.cls-9{fill:#dddde0;}.cls-10{fill:#e6e6e6;}.cls-11{fill:#5c351c;}.cls-12{fill:#ffb031;}.cls-13{fill:#fba02c;}</style></defs><title>Kreslicí plátno 1</title><rect class="cls-1" x="56.16" y="9.18" width="100.86" height="128.51" rx="3.45"/><path class="cls-2" d="M157,130a3.39,3.39,0,0,1-3.44,3.33h-94A3.39,3.39,0,0,1,56.16,130V12.51a3.39,3.39,0,0,1,3.45-3.33h94A3.39,3.39,0,0,1,157,12.51Z"/><rect class="cls-3" x="62.02" y="16.12" width="89.15" height="109.26"/><path class="cls-4" d="M135,10.26a5.1,5.1,0,0,0-5.1-5.1H83.31a5.1,5.1,0,0,0-5.11,5.1v9H135Z"/><circle class="cls-4" cx="106.59" cy="7.91" r="7.91" transform="translate(37.07 89.1) rotate(-53.67)"/><path class="cls-5" d="M109,5.49a2.43,2.43,0,1,1-2.43-2.42A2.42,2.42,0,0,1,109,5.49Z"/><rect class="cls-6" x="78.2" y="13" width="56.78" height="6.26"/><path class="cls-7" d="M135.59,39.81c0,.41-.9.74-2,.74H76.53c-1.1,0-2-.33-2-.74s.9-.75,2-.75h57.06C134.69,39.06,135.59,39.4,135.59,39.81Z"/><path class="cls-7" d="M114.66,42.51c0,.41-.9.75-2,.75H76.53c-1.1,0-2-.34-2-.75s.9-.74,2-.74h36.13C113.76,41.77,114.66,42.11,114.66,42.51Z"/><path class="cls-7" d="M105.06,45.27c0,.4-.9.74-2,.74H76.53c-1.1,0-2-.34-2-.74s.9-.75,2-.75h26.53C104.16,44.52,105.06,44.86,105.06,45.27Z"/><path class="cls-7" d="M136,58.55c0,.64-.9,1.16-2,1.16H89.51c-1.1,0-2-.52-2-1.16s.9-1.15,2-1.15H134C135.1,57.4,136,57.92,136,58.55Z"/><path class="cls-7" d="M136,70.16c0,.64-.9,1.16-2,1.16H89.51c-1.1,0-2-.52-2-1.16s.9-1.15,2-1.15H134C135.1,69,136,69.53,136,70.16Z"/><path class="cls-7" d="M136,82c0,.63-.9,1.15-2,1.15H89.51c-1.1,0-2-.52-2-1.15s.9-1.15,2-1.15H134C135.1,80.83,136,81.34,136,82Z"/><path class="cls-7" d="M136,93c0,.63-.9,1.15-2,1.15H89.51c-1.1,0-2-.52-2-1.15s.9-1.15,2-1.15H134C135.1,91.85,136,92.37,136,93Z"/><path class="cls-7" d="M82.68,54.39v7.23H75.45V54.39h7.23m.92-.92H74.53v9.07H83.6V53.47Z"/><path class="cls-7" d="M82.68,66.15v7.23H75.45V66.15h7.23m.92-.92H74.53V74.3H83.6V65.23Z"/><path class="cls-7" d="M82.68,77.9v7.23H75.45V77.9h7.23M83.6,77H74.53v9.07H83.6V77Z"/><path class="cls-7" d="M82.68,89.8V97H75.45V89.8h7.23m.92-.92H74.53V98H83.6V88.88Z"/><path class="cls-8" d="M79.1,61a.8.8,0,0,1-.59-.3l-3-4a.75.75,0,0,1,.07-1,.74.74,0,0,1,.53-.23.79.79,0,0,1,.44.14L79,57.33l4.76-4.28a.73.73,0,0,1,.5-.19.76.76,0,0,1,.51.2.75.75,0,0,1,.08,1L79.7,60.66a.75.75,0,0,1-.59.29Z"/><path class="cls-8" d="M84.28,53.61h0m0,0L79.11,60.2l-3-4,2.95,2.11,5.21-4.68m0-1.5h0a1.48,1.48,0,0,0-1,.39L79,56.37,77,55a1.55,1.55,0,0,0-.87-.28,1.51,1.51,0,0,0-1.2,2.4l3,4a1.51,1.51,0,0,0,1.18.61h0a1.48,1.48,0,0,0,1.18-.58l5.13-6.54a1.45,1.45,0,0,0,.36-1,1.5,1.5,0,0,0-1.5-1.5Zm0,3Z"/><path class="cls-8" d="M79.1,71.79a.77.77,0,0,1-.59-.31l-3-4a.75.75,0,0,1,.07-1,.74.74,0,0,1,.53-.23.79.79,0,0,1,.44.14L79,68.17l4.76-4.28a.73.73,0,0,1,.5-.19.76.76,0,0,1,.51.2.75.75,0,0,1,.08,1L79.7,71.5a.75.75,0,0,1-.59.29Z"/><path class="cls-8" d="M84.28,64.45h0m0,0L79.11,71l-3-4,2.95,2.11,5.21-4.68m0-1.5h0a1.53,1.53,0,0,0-1,.39L79,67.21,77,65.8a1.55,1.55,0,0,0-.87-.28,1.51,1.51,0,0,0-1.2,2.4l3,4a1.51,1.51,0,0,0,1.18.61h0A1.48,1.48,0,0,0,80.29,72l5.13-6.54a1.45,1.45,0,0,0,.36-1,1.5,1.5,0,0,0-1.5-1.5Zm0,3Z"/><path class="cls-9" d="M62,98.58v26.68H75C74.42,125.27,62.8,112,62,98.58Z"/><path class="cls-7" d="M76.66,112.64a24.13,24.13,0,0,1-8.79-4.52A16,16,0,0,1,62,96.72v1.75c.78,13.41,12.4,26.8,13,26.79a4.24,4.24,0,0,1-.9-2.68C74,120.11,75.36,116.73,76.66,112.64Z"/><path class="cls-3" d="M7.74,154.06a4.54,4.54,0,0,1-6.41,0h0a4.53,4.53,0,0,1,0-6.41l6.28-6.3a4.53,4.53,0,0,1,6.41,0h0a4.53,4.53,0,0,1,0,6.41Z"/><rect class="cls-6" x="5.04" y="143.61" width="4.34" height="9.13" transform="translate(-102.73 48.57) rotate(-45.04)"/><polygon class="cls-10" points="52.47 96.27 58.93 102.72 64.94 90.31 52.47 96.27"/><polygon class="cls-11" points="65.06 90.12 61.16 91.99 63.18 94.01 65.06 90.12"/><rect class="cls-12" x="-1.05" y="118.5" width="66.54" height="9.13" transform="translate(-77.71 59.05) rotate(-45.11)"/><rect class="cls-13" x="-1.05" y="121.06" width="66.54" height="4.01" transform="translate(-77.71 59.05) rotate(-45.11)"/><path class="cls-7" d="M67,100.83v0"/></svg>